<svg xmlns="http://www.w3.org/2000/svg" width="512" height="512" viewBox="0 0 512 512" style="overflow: hidden;" data-bbox="112.92689691244087 171.25419766860375 286.1462138432511 109.52391387724015"><g data-icon="" transform="matrix(0.2139139324426651, 0, 0, 0.2139139324426651, 111.71453857421875, 171.254150390625)" data-uid="o_f9hmnn39j_7"><path d="m12.671 372.484c2.429 22.159 20.378 39.472 42.62 41.028 1.84.13 3.668.259 5.496.377 13.562.92 24.105 12.182 24.105 25.78v51.395c0 17.289 19.789 27.101 33.54 16.628 25.096-19.117 58.482-47.55 78.967-77.033 4.847-6.982 12.854-11.05 21.357-11.003 63.07.318 126.14-1.71 189.209-6.144 17.583-1.227 32.514-12.277 39.165-27.82 1.769-4.08 2.948-8.491 3.455-13.102 9.34-85.324 9.34-170.659 0-255.994-2.429-22.136-20.39-39.366-42.597-40.922-93.956-6.592-187.9-7.913-281.845-3.963-23.61.979-47.231 2.3-70.841 3.963-22.218 1.556-40.191 18.786-42.62 40.922-9.339 85.3-9.339 170.588-.011 255.888z" fill="#f4dd45" data-uid="o_f9hmnn39j_8"></path><path d="m53.145 116.593c-9.339 85.303-9.339 170.587 0 255.89 2.435 22.158 20.37 39.466 42.623 41.026 1.826.133 3.671.247 5.497.38 13.561.913 24.098 12.173 24.098 25.772v51.391c0 3.518.818 6.714 2.244 9.51-3.157 2.491-6.219 4.869-9.186 7.132-13.751 10.461-33.532.647-33.532-16.642v-51.391c0-13.599-10.556-24.859-24.117-25.772-1.826-.133-3.652-.247-5.497-.38-22.234-1.56-40.189-18.868-42.604-41.026-9.338-85.303-9.338-170.587 0-255.89 2.435-22.139 20.408-39.371 42.623-40.93 23.604-1.654 47.226-2.986 70.848-3.956 42.072-1.769 84.162-2.492 126.234-2.13-28.587.209-57.173.932-85.76 2.13-23.603.97-47.226 2.301-70.848 3.956-22.215 1.56-40.188 18.792-42.623 40.93z" fill="#eab14d" data-uid="o_f9hmnn39j_9"></path><path d="m248.855 165.805h-179.618c-4.268 0-7.726-3.459-7.726-7.726s3.459-7.726 7.726-7.726h179.619c4.268 0 7.726 3.459 7.726 7.726s-3.459 7.726-7.727 7.726z" fill="#404a4a" data-uid="o_f9hmnn39j_10"></path><path d="m248.855 204.605h-179.618c-4.268 0-7.726-3.459-7.726-7.726s3.459-7.726 7.726-7.726h179.619c4.268 0 7.726 3.459 7.726 7.726s-3.459 7.726-7.727 7.726z" fill="#404a4a" data-uid="o_f9hmnn39j_11"></path><path d="m248.855 243.405h-179.618c-4.268 0-7.726-3.459-7.726-7.726s3.459-7.726 7.726-7.726h179.619c4.268 0 7.726 3.459 7.726 7.726s-3.459 7.726-7.727 7.726z" fill="#404a4a" data-uid="o_f9hmnn39j_12"></path><path d="m248.855 282.205h-179.618c-4.268 0-7.726-3.459-7.726-7.726s3.459-7.726 7.726-7.726h179.619c4.268 0 7.726 3.459 7.726 7.726s-3.459 7.726-7.727 7.726z" fill="#404a4a" data-uid="o_f9hmnn39j_13"></path><path d="m139.662 321.005h-70.425c-4.268 0-7.726-3.459-7.726-7.726s3.459-7.726 7.726-7.726h70.426c4.268 0 7.726 3.459 7.726 7.726s-3.459 7.726-7.727 7.726z" fill="#404a4a" data-uid="o_f9hmnn39j_14"></path><path d="m281.67 361.603c-1.379 0-2.775-.369-4.035-1.143-3.637-2.233-4.775-6.99-2.542-10.627l5.455-8.884c2.233-3.637 6.993-4.775 10.627-2.542 3.637 2.233 4.775 6.99 2.542 10.627l-5.455 8.884c-1.459 2.376-3.995 3.685-6.592 3.685z" fill="#404a4a" data-uid="o_f9hmnn39j_15"></path><path d="m408.437 266.718c-3.892 0-7.24-2.932-7.672-6.889-1.594-14.611 14.336-39.295 40.459-78.358 21.409-32.016 45.676-68.304 49.07-89.36 2.933-18.215-4.856-31.004-23.15-38.011-3.985-1.526-5.978-5.994-4.452-9.979 1.525-3.984 5.991-5.979 9.979-4.452 24.972 9.564 36.956 29.574 32.878 54.898-3.931 24.387-28.104 60.535-51.481 95.493-17.379 25.987-39.007 58.33-37.942 68.092.463 4.242-2.602 8.056-6.843 8.519-.284.032-.566.047-.846.047z" fill="#b4d0d5" data-uid="o_f9hmnn39j_16"></path><path d="m471.074 59.413 14.674-27.167c3.709-6.866 1.145-15.454-5.722-19.163l-21.07-11.381c-6.876-3.714-15.454-1.145-19.163 5.722l-14.674 27.166" fill="#dfeaef" data-uid="o_f9hmnn39j_17"></path><path d="m476.232 11.034c-6.876-3.714-15.454-1.145-19.163 5.722l-14.674 27.167-17.277-9.332 14.674-27.167c3.709-6.866 12.287-9.436 19.163-5.722z" fill="#b4d0d5" data-uid="o_f9hmnn39j_18"></path><path d="m471.856 72.267c-8.808 34.676-27.032 79.829-52.467 126.919-10.024 18.543-20.398 35.994-30.772 51.942-2.885 4.42-5.759 8.715-8.633 12.898-38.601 56.279-75.811 90.172-92.85 80.962-17.039-9.199-9.097-58.885 16.802-122.035 1.916-4.687 3.946-9.457 6.068-14.289 7.644-17.42 16.545-35.665 26.558-54.218 25.435-47.09 53.209-87.092 77.367-113.464 6.572-7.17 17.183-8.921 25.734-4.306l21.685 11.713c8.561 4.624 12.908 14.462 10.508 23.878z" fill="#6bbef6" data-uid="o_f9hmnn39j_19"></path><path d="m287.136 344.991c-22.872-12.354-.738-97.667 49.428-190.541 25.437-47.092 53.201-87.093 77.366-113.475 6.568-7.163 17.183-8.919 25.734-4.299l7.858 4.245c-2.35-1.269-7.533 3.42-12.58 11.405-18.608 29.384-42.915 71.252-68.352 118.344-50.164 92.873-85.742 170.924-79.454 174.321z" fill="#528ecb" data-uid="o_f9hmnn39j_20"></path><path d="m388.617 251.127c-2.885 4.42-5.759 8.715-8.633 12.898l-76.048-41.073c1.916-4.687 3.946-9.457 6.068-14.289z" fill="#dfeaef" data-uid="o_f9hmnn39j_21"></path></g><path text-anchor="start" offset="0" fill="#4679ad" space="preserve" font-scale="contain" font-size="48" font-family="Source Serif Pro" text="TT" font-style="normal" font-weight="700" data-fl-textpath="" transform="matrix(1.3506461381912231, 0, 0, 1.3506461381912231, 244.83740234375, 215.08267211914062)" data-uid="o_f9hmnn39j_22" d="M 4.94-22.61L 0.96-22.61L 1.15-31.54L 29.33-31.54L 29.47-22.61L 25.49-22.61L 24.62-28.85L 19.34-28.85Q 19.3-25.87  19.27-22.82Q 19.25-19.78  19.25-16.66L 19.25-16.66L 19.25-14.93Q 19.25-11.95  19.27-8.98Q 19.3-6  19.34-3.02L 19.34-3.02L 23.47-2.59L 23.47 0L 7.01 0L 7.01-2.59L 11.09-3.02Q 11.18-5.95  11.18-8.93Q 11.18-11.9  11.18-14.88L 11.18-14.88L 11.18-16.66Q 11.18-19.68  11.18-22.73Q 11.18-25.78  11.09-28.85L 11.09-28.85L 5.86-28.85L 4.94-22.61ZM 35.372-22.61L 31.392-22.61L 31.582-31.54L 59.762-31.54L 59.902-22.61L 55.922-22.61L 55.052-28.85L 49.772-28.85Q 49.732-25.87  49.702-22.82Q 49.682-19.78  49.682-16.66L 49.682-16.66L 49.682-14.93Q 49.682-11.95  49.702-8.98Q 49.732-6  49.772-3.02L 49.772-3.02L 53.902-2.59L 53.902 0L 37.442 0L 37.442-2.59L 41.522-3.02Q 41.612-5.95  41.612-8.93Q 41.612-11.9  41.612-14.88L 41.612-14.88L 41.612-16.66Q 41.612-19.68  41.612-22.73Q 41.612-25.78  41.522-28.85L 41.522-28.85L 36.292-28.85L 35.372-22.61Z"></path><path text-anchor="start" offset="0" fill="#528ecb" space="preserve" font-scale="contain" font-size="48" font-family="Source Serif Pro" text="front" font-style="normal" font-weight="700" data-fl-textpath="" transform="matrix(1.3506461381912231, 0, 0, 1.3506461381912231, 245.22911071777344, 279.8056335449219)" data-uid="o_f9hmnn39j_23" d="M 15.55 0L 1.44 0L 1.44-2.26L 4.08-2.78Q 4.13-4.61  4.15-6.43Q 4.18-8.26  4.18-10.08L 4.18-10.08L 4.18-19.92L 1.06-19.92L 1.06-22.75L 4.27-23.14Q 4.66-26.4  5.54-28.39Q 6.43-30.38  7.97-31.97L 7.97-31.97Q 9.74-33.74  11.98-34.54Q 14.21-35.33  16.27-35.33L 16.27-35.33Q 18.29-35.33  19.92-34.58Q 21.55-33.84  22.03-31.92L 22.03-31.92Q 21.98-30.58  21.1-29.64Q 20.21-28.7  18.58-28.7L 18.58-28.7Q 17.38-28.7  16.32-29.52Q 15.26-30.34  14.26-32.11L 14.26-32.11L 13.87-32.69Q 12.58-31.34  12.1-29.16Q 11.62-26.98  11.71-23.18L 11.71-23.18L 16.85-23.18L 16.85-19.92L 11.81-19.92L 11.81-10.08Q 11.81-8.3  11.81-6.55Q 11.81-4.8  11.86-3.02L 11.86-3.02L 15.55-2.26L 15.55 0ZM 32.876 0L 18.676 0L 18.676-2.26L 21.316-2.78Q 21.356-4.56  21.356-6.58Q 21.356-8.59  21.356-10.08L 21.356-10.08L 21.356-12.91Q 21.356-14.26  21.336-15.12Q 21.316-15.98  21.286-16.73Q 21.266-17.47  21.216-18.43L 21.216-18.43L 18.286-18.86L 18.286-20.74L 27.746-23.95L 28.606-23.42L 29.036-17.76Q 30.046-20.83  31.876-22.39Q 33.696-23.95  35.476-23.95L 35.476-23.95Q 37.056-23.95  38.206-23.06Q 39.356-22.18  39.646-20.4L 39.646-20.4Q 39.596-18.53  38.636-17.5Q 37.676-16.46  36.236-16.46L 36.236-16.46Q 34.226-16.46  32.546-18.72L 32.546-18.72L 32.256-19.1Q 31.196-18.1  30.316-16.56Q 29.426-15.02  29.036-13.34L 29.036-13.34L 29.036-10.08Q 29.036-8.59  29.036-6.67Q 29.036-4.75  29.086-3.07L 29.086-3.07L 32.876-2.26L 32.876 0ZM 53.276 0.72L 53.276 0.72Q 49.536 0.72  46.796-0.84Q 44.066-2.4  42.576-5.21Q 41.086-8.02  41.086-11.71L 41.086-11.71Q 41.086-15.41  42.696-18.14Q 44.306-20.88  47.086-22.42Q 49.876-23.95  53.276-23.95L 53.276-23.95Q 56.686-23.95  59.446-22.46Q 62.206-20.98  63.836-18.22Q 65.476-15.46  65.476-11.71L 65.476-11.71Q 65.476-7.97  63.986-5.18Q 62.496-2.4  59.756-0.84Q 57.026 0.72  53.276 0.72ZM 53.276-1.78L 53.276-1.78Q 55.296-1.78  56.306-4.13Q 57.316-6.48  57.316-11.57L 57.316-11.57Q 57.316-16.7  56.306-19.06Q 55.296-21.41  53.276-21.41L 53.276-21.41Q 51.216-21.41  50.206-19.06Q 49.196-16.7  49.196-11.57L 49.196-11.57Q 49.196-6.48  50.206-4.13Q 51.216-1.78  53.276-1.78ZM 80.786 0L 68.156 0L 68.156-2.26L 70.756-2.83Q 70.796-4.56  70.796-6.58Q 70.796-8.59  70.796-10.08L 70.796-10.08L 70.796-12.86Q 70.796-14.83  70.776-15.91Q 70.756-16.99  70.656-18.43L 70.656-18.43L 67.726-18.86L 67.726-20.74L 77.186-23.95L 78.046-23.42L 78.336-19.97Q 80.206-22.18  82.056-23.06Q 83.906-23.95  86.016-23.95L 86.016-23.95Q 89.136-23.95  91.036-21.89Q 92.926-19.82  92.926-15.7L 92.926-15.7L 92.926-10.08Q 92.926-8.5  92.926-6.5Q 92.926-4.51  92.976-2.74L 92.976-2.74L 95.376-2.26L 95.376 0L 82.706 0L 82.706-2.26L 85.196-2.78Q 85.246-4.56  85.246-6.55Q 85.246-8.54  85.246-10.08L 85.246-10.08L 85.246-15.12Q 85.246-17.42  84.626-18.36Q 83.996-19.3  82.606-19.3L 82.606-19.3Q 80.736-19.3  78.476-17.57L 78.476-17.57L 78.476-10.08Q 78.476-8.59  78.476-6.55Q 78.476-4.51  78.526-2.74L 78.526-2.74L 80.786-2.26L 80.786 0ZM 106.844 0.72L 106.844 0.72Q 103.634 0.72  101.804-0.84Q 99.984-2.4  99.984-5.95L 99.984-5.95Q 99.984-7.2  100.004-8.28Q 100.034-9.36  100.034-10.75L 100.034-10.75L 100.034-19.92L 96.914-19.92L 96.914-22.75L 100.464-23.23L 102.864-29.95L 107.764-29.95L 107.664-23.18L 112.704-23.18L 112.704-19.92L 107.664-19.92L 107.664-6.48Q 107.664-4.8  108.364-4.01Q 109.054-3.22  110.114-3.22L 110.114-3.22Q 111.364-3.22  112.704-4.27L 112.704-4.27L 113.904-3.12Q 112.944-1.3  111.244-0.29Q 109.534 0.72  106.844 0.72Z"></path></svg>